<svg width="120" height="120" viewBox="0 0 120 120" fill="none" xmlns="http://www.w3.org/2000/svg">
<circle cx="60" cy="60" r="60" fill="#FFD700"/>
<path d="M36.2309 102L50.4065 67.1206C50.5769 66.6997 50.6459 66.2408 50.6072 65.7849C50.5684 65.329 50.4232 64.8903 50.1844 64.5081C49.9457 64.1258 49.6208 63.8119 49.239 63.5944C48.8571 63.3769 48.4301 63.2625 47.996 63.2615H37.6302C37.1948 63.2632 36.7659 63.1505 36.3821 62.9336C35.9984 62.7166 35.672 62.4022 35.4324 62.0188C35.1928 61.6354 35.0476 61.195 35.0099 60.7376C34.9721 60.2801 35.0431 59.82 35.2163 59.3987L51.2741 20.6602C51.4782 20.167 51.8143 19.7472 52.2411 19.4524C52.668 19.1575 53.1672 19.0003 53.6775 19H80.6153C81.1096 19.0002 81.5939 19.1476 82.0122 19.4254C82.4306 19.7031 82.766 20.0998 82.9799 20.5699C83.1938 21.0399 83.2774 21.564 83.2211 22.082C83.1649 22.5999 82.971 23.0905 82.6619 23.4974L68.4933 42.1767C68.185 42.5838 67.992 43.0744 67.9364 43.5921C67.8809 44.1098 67.965 44.6335 68.1792 45.103C68.3934 45.5724 68.7289 45.9686 69.1471 46.2459C69.5654 46.5232 70.0493 46.6703 70.5433 46.6704H82.375C82.8943 46.6701 83.402 46.8324 83.8338 47.1366C84.2657 47.4409 84.6021 47.8735 84.8007 48.3795C84.9992 48.8856 85.0509 49.4424 84.9492 49.9795C84.8474 50.5165 84.5968 51.0097 84.2292 51.3965L36.2309 102Z" fill="white" stroke="white" stroke-width="2.75" stroke-linejoin="round"/>
</svg>
