<svg width="150" height="150" viewBox="0 0 150 150" fill="none" xmlns="http://www.w3.org/2000/svg">
<circle cx="75" cy="75" r="75" fill="white"/>
<circle cx="75" cy="75" r="70" fill="#01B5DA"/>
<path d="M43.6001 126L62.0284 85.6576C62.25 85.1707 62.3397 84.6399 62.2893 84.1126C62.2389 83.5853 62.0501 83.078 61.7398 82.6359C61.4294 82.1937 61.0071 81.8307 60.5107 81.5791C60.0142 81.3275 59.4591 81.1952 58.8949 81.194H45.4193C44.8533 81.196 44.2956 81.0657 43.7968 80.8147C43.2979 80.5638 42.8736 80.2001 42.5621 79.7567C42.2506 79.3132 42.0619 78.8039 42.0128 78.2748C41.9638 77.7457 42.056 77.2135 42.2812 76.7262L63.1563 31.9203C63.4216 31.3498 63.8585 30.8643 64.4135 30.5232C64.9684 30.1821 65.6173 30.0003 66.2807 30H101.3C101.943 30.0002 102.572 30.1708 103.116 30.492C103.66 30.8133 104.096 31.2721 104.374 31.8157C104.652 32.3594 104.761 32.9656 104.687 33.5647C104.614 34.1637 104.362 34.7312 103.96 35.2018L85.5413 56.8068C85.1405 57.2777 84.8896 57.8451 84.8173 58.4439C84.7451 59.0426 84.8545 59.6484 85.1329 60.1914C85.4114 60.7344 85.8475 61.1926 86.3913 61.5133C86.935 61.834 87.5641 62.0042 88.2063 62.0043H103.587C104.263 62.004 104.923 62.1917 105.484 62.5436C106.045 62.8955 106.483 63.3958 106.741 63.9811C106.999 64.5665 107.066 65.2105 106.934 65.8317C106.802 66.4529 106.476 67.0232 105.998 67.4706L43.6001 126Z" fill="white" stroke="white" stroke-width="2.75" stroke-linejoin="round"/>
</svg>
