<svg width="106" height="106" viewBox="0 0 106 106" fill="none" xmlns="http://www.w3.org/2000/svg">
<path d="M45.486 11.6112C49.0129 6.16109 56.9871 6.16109 60.514 11.6112V11.6112C62.8157 15.168 67.296 16.6237 71.2488 15.0991V15.0991C77.3056 12.763 83.7568 17.4501 83.4067 23.9323V23.9323C83.1782 28.1628 85.9472 31.9739 90.0412 33.0639V33.0639C96.3144 34.7341 98.7785 42.3179 94.6851 47.3564V47.3564C92.0136 50.6446 92.0136 55.3554 94.6851 58.6436V58.6436C98.7785 63.6821 96.3144 71.2659 90.0412 72.9361V72.9361C85.9472 74.0261 83.1782 77.8372 83.4067 82.0677V82.0677C83.7568 88.5499 77.3056 93.237 71.2488 90.9009V90.9009C67.296 89.3763 62.8157 90.832 60.514 94.3888V94.3888C56.9871 99.8389 49.0129 99.8389 45.486 94.3888V94.3888C43.1843 90.832 38.704 89.3763 34.7512 90.9009V90.9009C28.6944 93.237 22.2432 88.5499 22.5933 82.0677V82.0677C22.8218 77.8372 20.0528 74.0261 15.9588 72.9361V72.9361C9.68562 71.2659 7.22148 63.6821 11.3149 58.6436V58.6436C13.9864 55.3554 13.9864 50.6446 11.3149 47.3564V47.3564C7.22148 42.3179 9.68562 34.7341 15.9588 33.0639V33.0639C20.0528 31.9739 22.8218 28.1628 22.5933 23.9323V23.9323C22.2432 17.4501 28.6944 12.763 34.7512 15.0991V15.0991C38.704 16.6237 43.1843 15.168 45.486 11.6112V11.6112Z" fill="white"/>
<path d="M45.9113 13.9539C49.2386 8.81235 56.7614 8.81235 60.0887 13.9539V13.9539C62.2601 17.3094 66.4868 18.6827 70.2158 17.2444V17.2444C75.9298 15.0406 82.0159 19.4623 81.6856 25.5777V25.5777C81.47 29.5687 84.0822 33.1641 87.9445 34.1924V34.1924C93.8626 35.768 96.1873 42.9225 92.3255 47.6758V47.6758C89.8053 50.7779 89.8053 55.2221 92.3255 58.3242V58.3242C96.1873 63.0775 93.8626 70.232 87.9445 71.8076V71.8076C84.0822 72.8359 81.47 76.4313 81.6856 80.4223V80.4223C82.0159 86.5377 75.9298 90.9594 70.2158 88.7556V88.7556C66.4868 87.3173 62.2601 88.6906 60.0887 92.0461V92.0461C56.7614 97.1876 49.2386 97.1876 45.9113 92.0461V92.0461C43.7399 88.6906 39.5132 87.3173 35.7842 88.7556V88.7556C30.0702 90.9594 23.9841 86.5377 24.3144 80.4223V80.4223C24.53 76.4313 21.9178 72.8359 18.0555 71.8076V71.8076C12.1374 70.232 9.81272 63.0775 13.6745 58.3242V58.3242C16.1947 55.2221 16.1947 50.7779 13.6745 47.6758V47.6758C9.81272 42.9225 12.1374 35.768 18.0555 34.1924V34.1924C21.9178 33.1641 24.53 29.5687 24.3144 25.5777V25.5777C23.9841 19.4623 30.0702 15.0406 35.7842 17.2444V17.2444C39.5132 18.6827 43.7399 17.3094 45.9113 13.9539V13.9539Z" fill="#BA68C8"/>
<path d="M35.3864 39.8182L40.1676 48.0895H40.3722L45.2045 39.8182H52.2869L44.3864 52.9091L52.5426 66H45.2812L40.3722 57.6392H40.1676L35.2585 66H28.0483L36.1662 52.9091L28.2528 39.8182H35.3864ZM55.5597 66V39.8182H66.375C68.3352 39.8182 70.027 40.2017 71.4503 40.9688C72.8821 41.7273 73.9858 42.7884 74.7614 44.152C75.5369 45.5071 75.9247 47.0838 75.9247 48.8821C75.9247 50.6889 75.5284 52.2699 74.7358 53.625C73.9517 54.9716 72.831 56.0156 71.3736 56.7571C69.9162 57.4986 68.1861 57.8693 66.1832 57.8693H59.5099V52.8835H65.0071C65.9616 52.8835 66.7585 52.7173 67.3977 52.3849C68.0455 52.0526 68.5355 51.5881 68.8679 50.9915C69.2003 50.3864 69.3665 49.6832 69.3665 48.8821C69.3665 48.0724 69.2003 47.3736 68.8679 46.7855C68.5355 46.1889 68.0455 45.7287 67.3977 45.4048C66.75 45.081 65.9531 44.919 65.0071 44.919H61.8878V66H55.5597Z" fill="white"/>
</svg>
